<svg width="1207" height="856" viewBox="0 0 1207 856" fill="none" xmlns="http://www.w3.org/2000/svg">
<path opacity="0.1" d="M954.627 734.426C1091.41 734.426 1202.3 712.873 1202.3 686.288C1202.3 659.702 1091.41 638.15 954.627 638.15C817.841 638.15 706.954 659.702 706.954 686.288C706.954 712.873 817.841 734.426 954.627 734.426Z" fill="#6C63FF"/>
<g opacity="0.5">
<path opacity="0.5" d="M742.483 121.876C739.143 122.825 735.054 125.297 733.038 132.059C729.089 145.312 738.265 154.323 735.241 168.138C734.402 171.803 732.806 175.252 730.554 178.263C726.863 183.267 722.855 185.634 718.965 189.137C714.03 193.613 710.494 199.42 708.782 205.859C706.906 212.966 706.749 220.417 708.325 227.596C709.708 233.596 712.063 237.966 714.125 242.829C716.69 249.032 718.694 255.452 720.113 262.012C720.893 265.206 721.333 268.474 721.426 271.761C721.367 276.128 720.976 280.484 720.254 284.792L714.641 323.954C713.788 329.074 713.276 334.245 713.106 339.433C713.179 344.633 713.78 349.811 714.899 354.889C716.867 365.248 718.988 375.982 723.5 381.466C728.011 386.95 735.698 384.981 740.421 373.884C744.909 363.268 745.014 349.1 748.975 337.757C755.221 319.887 767.63 317.485 774.52 300.435C781.129 284.03 779.102 264.016 782.453 245.361C784.797 231.99 789.965 219.803 793 206.597C797.359 187.579 796.925 167.834 793.445 153.21C790.798 141.194 785.072 130.073 776.829 120.938C773.911 117.716 770.782 114.845 767.114 114.552C763.212 114.247 759.802 119.157 755.947 120.633C751.494 122.379 747.018 120.587 742.483 121.876Z" fill="#6C63FF"/>
<path opacity="0.5" d="M763.611 115.548C763.611 115.548 757.002 284.686 729.207 384.419" stroke="#535461" stroke-width="2" stroke-miterlimit="10"/>
<path opacity="0.5" d="M732.874 132.855C732.874 132.855 762.58 159.901 756.943 211.366" stroke="#535461" stroke-width="2" stroke-miterlimit="10"/>
<path opacity="0.5" d="M707.95 209.82C707.95 209.82 756.709 219.628 753.088 248.794" stroke="#535461" stroke-width="2" stroke-miterlimit="10"/>
<path opacity="0.5" d="M793.527 152.858C793.527 152.858 773.794 170.131 756.217 219.053" stroke="#535461" stroke-width="2" stroke-miterlimit="10"/>
<path opacity="0.5" d="M774.251 300.717C774.251 300.717 760.787 311.263 749.983 274.339" stroke="#535461" stroke-width="2" stroke-miterlimit="10"/>
<path opacity="0.5" d="M716.153 322.29C716.153 322.29 743.608 318.704 746.139 301.513" stroke="#535461" stroke-width="2" stroke-miterlimit="10"/>
</g>
<path d="M748.627 15.1982C738.042 17.0796 725.303 22.9643 720.066 41.0997C709.791 76.6705 741.017 103.6 733.826 140.768C731.681 150.996 727.163 160.288 720.796 167.566C709.846 180.495 697.327 186.139 685.464 194.912C673.602 203.684 661.283 217.488 655.717 238.664C650.37 259.031 652.687 281.52 658.254 298.321C663.82 315.122 672.233 327.657 679.752 341.483C688.889 358.5 696.528 376.609 702.546 395.517C705.581 404.135 707.62 413.21 708.605 422.49C709.572 433.866 708.349 446.095 707.127 458.061L696.268 564.686C694.826 578.862 693.366 593.257 694.188 606.907C695.118 622.636 699.005 636.375 702.838 649.785C711.087 678.705 719.92 708.851 735.487 724.777C751.054 740.703 775.472 737.29 788.63 707.669C801.15 679.471 798.85 640.553 809.527 610.254C826.353 562.498 865.919 558.626 884.953 513.299C903.203 469.809 893.001 414.177 900.338 363.643C905.594 327.438 919.829 295.061 927.129 259.425C937.659 208.081 932.604 153.719 918.697 112.854C904.791 71.989 882.8 42.8498 859.203 20.4704C849.202 10.9543 838.599 2.35689 826.718 0.781801C814.089 -0.902671 803.997 11.8293 791.861 15.0451C777.735 18.5672 762.989 12.6387 748.627 15.1982Z" fill="#6C63FF"/>
<path d="M851.836 1.61316C851.836 1.61316 858.234 249.907 812.51 393.489" stroke="#535461" stroke-width="2" stroke-miterlimit="10"/>
<path d="M790.258 23.5025C790.258 23.5025 854.941 66.8593 849.399 142.042" stroke="#535461" stroke-width="2" stroke-miterlimit="10"/>
<path d="M747.803 133.851C747.803 133.851 849.891 154.077 845.86 196.59" stroke="#535461" stroke-width="2" stroke-miterlimit="10"/>
<path d="M918.172 60.1097C918.172 60.1097 879.374 83.206 848.813 153.163" stroke="#535461" stroke-width="2" stroke-miterlimit="10"/>
<path d="M895.779 275.57C895.779 275.57 869.179 289.631 842.427 233.842" stroke="#535461" stroke-width="2" stroke-miterlimit="10"/>
<path d="M778.094 300.424C778.094 300.424 834.493 298.396 837.704 273.378" stroke="#535461" stroke-width="2" stroke-miterlimit="10"/>
<path d="M78.8073 678.519C78.8073 678.519 88.627 691.408 74.2724 710.743C59.9178 730.078 48.0591 746.507 52.8752 758.6C52.8752 758.6 74.5302 722.59 92.1542 722.086C109.778 721.583 98.2007 700.174 78.8073 678.519Z" fill="#6C63FF"/>
<path opacity="0.1" d="M78.8073 678.519C79.6836 679.757 80.3781 681.114 80.8697 682.55C98.0718 702.752 107.224 721.606 90.7012 722.086C75.3036 722.532 56.836 750.057 52.4066 757.018C52.5527 757.555 52.7288 758.083 52.9339 758.6C52.9339 758.6 74.5888 722.59 92.2128 722.086C109.837 721.583 98.2007 700.174 78.8073 678.519Z" fill="black"/>
<path d="M97.0641 694.889C97.0641 699.412 96.5602 703.091 95.8923 703.091C95.2243 703.091 94.7205 699.424 94.7205 694.889C94.7205 690.354 95.3532 692.545 95.9743 692.545C96.5953 692.545 97.0641 690.366 97.0641 694.889Z" fill="#FFD037"/>
<path d="M103.333 700.279C99.3608 702.447 95.9039 703.794 95.611 703.197C95.318 702.599 98.2827 700.443 102.255 698.287C106.228 696.131 104.657 697.701 104.962 698.287C105.267 698.873 107.294 698.111 103.333 700.279Z" fill="#FFD037"/>
<path d="M26.9666 678.519C26.9666 678.519 17.1469 691.408 31.5015 710.743C45.8562 730.078 57.6914 746.495 52.8987 758.588C52.8987 758.588 31.2437 722.579 13.6198 722.075C-4.00419 721.571 7.54982 700.174 26.9666 678.519Z" fill="#6C63FF"/>
<path opacity="0.1" d="M26.9666 678.519C26.1109 679.76 25.4363 681.118 24.9629 682.55C7.76075 702.752 -1.39106 721.606 15.1314 722.086C30.5289 722.532 48.9966 750.057 53.426 757.018C53.2799 757.555 53.1038 758.083 52.8987 758.6C52.8987 758.6 31.2437 722.59 13.6198 722.086C-4.00419 721.583 7.54982 700.174 26.9666 678.519Z" fill="black"/>
<path d="M8.6864 694.889C8.6864 699.412 9.19028 703.091 9.85821 703.091C10.5261 703.091 11.03 699.424 11.03 694.889C11.03 690.354 10.3972 692.545 9.77618 692.545C9.15512 692.545 8.6864 690.366 8.6864 694.889Z" fill="#FFD037"/>
<path d="M2.41732 700.279C6.38974 702.447 9.84656 703.794 10.1395 703.197C10.4325 702.599 7.4678 700.443 3.49538 698.287C-0.477047 696.131 1.09318 697.701 0.788507 698.287C0.483837 698.873 -1.54339 698.111 2.41732 700.279Z" fill="#FFD037"/>
<path d="M11.8152 756.912C11.8152 756.912 39.2706 756.069 47.5435 750.175C55.8165 744.28 89.7286 737.285 91.8261 746.659C93.9236 756.034 133.085 793.66 102.091 793.906C71.0969 794.152 30.0719 789.079 21.8107 784.051C13.5495 779.024 11.8152 756.912 11.8152 756.912Z" fill="#A8A8A8"/>
<path opacity="0.2" d="M102.642 790.649C71.6476 790.895 30.6227 785.821 22.3614 780.794C16.0688 776.962 13.5612 763.217 12.7292 756.877H11.8152C11.8152 756.877 13.5495 779.024 21.8107 784.051C30.0719 789.078 71.0969 794.164 102.091 793.906C111.044 793.836 114.126 790.649 113.962 785.938C112.719 788.821 109.309 790.602 102.642 790.649Z" fill="black"/>
<path d="M1151.14 673.187C1153.29 671.436 1154.85 669.074 1155.63 666.414C1156.21 663.719 1155.06 660.496 1152.49 659.512C1149.6 658.41 1146.52 660.402 1144.19 662.43C1141.86 664.457 1139.17 666.754 1136.12 666.32C1137.69 664.895 1138.86 663.087 1139.53 661.073C1140.19 659.058 1140.33 656.906 1139.91 654.825C1139.78 653.962 1139.42 653.152 1138.86 652.481C1137.25 650.77 1134.36 651.509 1132.44 652.856C1126.34 657.145 1124.64 665.418 1124.61 672.871C1124 670.187 1124.52 667.387 1124.49 664.668C1124.47 661.949 1123.72 658.809 1121.4 657.379C1119.96 656.606 1118.34 656.222 1116.71 656.266C1113.97 656.161 1110.92 656.442 1109.05 658.446C1106.7 660.93 1107.32 665.113 1109.35 667.82C1111.38 670.527 1114.45 672.273 1117.29 674.171C1119.56 675.522 1121.5 677.369 1122.96 679.573C1123.13 679.879 1123.27 680.201 1123.38 680.534H1140.55C1144.39 678.574 1147.96 676.103 1151.14 673.187Z" fill="#6C63FF"/>
<path opacity="0.1" d="M171.942 563.365C209.229 610.777 194.746 680.042 171.052 735.504C163.119 754.077 154.143 773.728 157.494 793.637C161.584 817.987 183.274 835.822 206.147 845.196C247.747 862.398 297.548 858.297 335.761 834.521C368.794 813.968 392.453 780.548 426.049 760.932C482.295 728.121 553.846 740.507 614.897 763.111C658.09 779.106 705.313 799.918 748.237 783.196C778.434 771.478 799.316 742.804 810.694 712.454C816.19 697.795 820.174 681.987 830.615 670.269C836.849 663.367 844.981 658.457 853.324 654.333C929.492 616.589 1025.58 636.755 1099.5 594.945C1149.43 566.681 1181.39 513.353 1195.59 457.75C1209.78 402.148 1208.09 343.839 1204.49 286.585C1201.94 245.888 1197.35 202.449 1171.35 171.033C1143.85 137.812 1096.64 125.45 1053.97 131.766C1011.31 138.082 972.614 160.698 938.632 187.204C896.107 220.331 856.676 261.59 804.46 275.019C768.907 284.159 731.503 279.155 694.826 277.433C633.517 274.539 572.196 280.948 511.227 287.979C452.86 294.729 394.047 302.158 338.468 321.141C299.119 334.582 267.574 358.967 230.416 376.005C206.194 387.114 179.782 390.184 156.861 404.328C128.609 421.752 102.724 452.067 109.989 487.526C116.809 521.286 152.139 538.207 171.942 563.365Z" fill="#6C63FF"/>
<path opacity="0.1" d="M647.25 563.342C924.026 563.342 1148.4 541.79 1148.4 515.204C1148.4 488.618 924.026 467.066 647.25 467.066C370.475 467.066 146.104 488.618 146.104 515.204C146.104 541.79 370.475 563.342 647.25 563.342Z" fill="#6C63FF"/>
<path opacity="0.1" d="M321.661 840.814C491.543 840.814 629.26 818.779 629.26 791.598C629.26 764.417 491.543 742.382 321.661 742.382C151.778 742.382 14.0617 764.417 14.0617 791.598C14.0617 818.779 151.778 840.814 321.661 840.814Z" fill="#6C63FF"/>
<path d="M515.27 500.193L511.344 505.9C511.344 505.9 515.621 511.607 516.032 512.321C516.442 513.036 528.511 511.97 528.511 511.97L529.578 507.693L527.797 502.701L515.27 500.193Z" fill="#E6E6F0"/>
<path d="M383.289 496.982L375.438 498.4L380.43 508.044L385.785 510.892L390.777 514.454L392.207 510.54L388.633 503.041L383.289 496.982Z" fill="#FDC2CC"/>
<path d="M511.708 404.234C511.708 404.234 553.447 414.218 561.287 425.327C561.287 425.327 568.423 431.396 561.287 442.447C554.15 453.497 544.167 478.48 544.167 478.48C544.167 478.48 537.03 502.736 534.183 504.517C531.335 506.298 514.918 507.728 513.489 501.002C513.489 501.002 522.758 486.378 522.758 479.593C522.758 472.808 538.097 440.712 538.097 440.712C538.097 440.712 503.142 436.787 492.08 439.283C481.018 441.779 497.083 400.308 511.708 404.234Z" fill="#565171"/>
<path opacity="0.1" d="M511.708 404.234C511.708 404.234 553.447 414.218 561.287 425.327C561.287 425.327 568.423 431.396 561.287 442.447C554.15 453.497 544.167 478.48 544.167 478.48C544.167 478.48 537.03 502.736 534.183 504.517C531.335 506.298 514.918 507.728 513.489 501.002C513.489 501.002 522.758 486.378 522.758 479.593C522.758 472.808 538.097 440.712 538.097 440.712C538.097 440.712 503.142 436.787 492.08 439.283C481.018 441.779 497.083 400.308 511.708 404.234Z" fill="black"/>
<path d="M503.142 413.866C503.06 415.94 502.837 418.272 502.521 420.78C500.236 438.943 492.795 465.953 492.795 465.953C492.795 465.953 485.307 482.007 483.162 492.354C481.018 502.701 466.394 505.244 466.394 505.244C466.394 505.244 426.435 509.931 418.233 508.103C410.03 506.275 397.14 513.458 390.766 512.38C384.391 511.302 380.418 496.326 380.418 496.326C391.482 496.391 402.431 494.081 412.526 489.553C428.931 482.065 452.485 485.628 452.485 485.628C454.241 485.117 455.875 484.254 457.286 483.089C458.696 481.924 459.854 480.483 460.687 478.855C463.183 473.499 463.183 441.04 462.468 438.896C457.781 424.834 458.168 415.811 459.515 410.55C459.966 408.252 460.981 406.102 462.468 404.293L503.142 413.866Z" fill="#565171"/>
<path opacity="0.1" d="M503.142 413.866C503.06 415.94 502.837 418.272 502.521 420.78C498.935 421.061 488.881 421.331 481.428 416.725C474.397 412.413 464.167 410.948 459.562 410.491C460.013 408.193 461.028 406.043 462.515 404.234L503.142 413.866Z" fill="black"/>
<path d="M508.075 409.402C506.411 414.089 503.857 419.585 503.857 419.585C503.857 419.585 490.662 421.366 481.381 415.659C472.101 409.952 457.125 409.238 457.125 409.238C459.551 407.749 461.191 403.226 462.211 399.266C462.78 397.026 463.226 394.757 463.546 392.469C463.546 392.469 507.419 401.387 509.247 402.816C509.927 403.379 509.2 406.214 508.075 409.402Z" fill="#E6E6F0"/>
<path d="M586.258 259.047L533.046 291.166L527.761 294.354V278.663L531.429 276.906L576.274 255.473C576.274 255.473 578.418 216.593 584.125 222.663C589.832 228.733 586.258 259.047 586.258 259.047Z" fill="#FDC2CC"/>
<path opacity="0.1" d="M533.046 291.166L527.761 294.354V278.663L531.429 276.906C531.672 281.688 532.212 286.451 533.046 291.166Z" fill="black"/>
<path d="M492.092 296.908L530.257 274.796C530.257 274.796 530.972 296.205 535.249 299.404C535.249 299.404 519.559 304.091 513.489 314.028L492.092 296.908Z" fill="#B45181"/>
<path opacity="0.1" d="M492.092 296.908L530.257 274.796C530.257 274.796 530.972 296.205 535.249 299.404C535.249 299.404 519.559 304.091 513.489 314.028L492.092 296.908Z" fill="black"/>
<path d="M585.918 315.763C585.918 315.763 567.767 323.672 555.744 326.578C553.039 327.394 550.209 327.72 547.389 327.539C539.187 326.11 549.534 315.821 549.534 315.821L553.846 315.153L577.001 311.544C577.001 311.544 579.497 275.874 583.774 278.734C588.051 281.593 585.918 315.763 585.918 315.763Z" fill="#FDC2CC"/>
<path d="M509.212 283.655C509.212 283.655 493.873 295.069 499.579 309.341C505.286 323.614 469.968 300.775 469.968 300.775C469.968 300.775 481.381 283.655 483.877 270.812C486.373 257.969 509.212 283.655 509.212 283.655Z" fill="#FDC2CC"/>
<path opacity="0.1" d="M508.075 409.402C501.441 406.903 494.507 405.288 487.451 404.597C477.139 403.425 467.695 401.445 462.222 399.266C462.791 397.026 463.237 394.757 463.558 392.469C463.558 392.469 507.431 401.387 509.259 402.816C509.927 403.379 509.2 406.214 508.075 409.402Z" fill="black"/>
<path opacity="0.1" d="M555.732 326.578C553.027 327.394 550.197 327.72 547.377 327.539C539.175 326.11 549.522 315.821 549.522 315.821L553.834 315.153C555.639 317.931 557.478 322.266 555.732 326.578Z" fill="black"/>
<path d="M484.241 290.077C484.241 290.077 470.331 289.725 465.339 295.432C460.347 301.138 461.414 316.524 461.414 316.524C461.414 316.524 460.371 347.331 468.187 364.568C468.445 365.125 468.474 365.76 468.269 366.338C468.187 366.549 468.187 366.42 468.187 366.42C468.187 366.42 463.195 388.895 458.203 392.821C453.211 396.746 468.902 401.386 487.498 403.519C506.095 405.652 513.536 411.007 513.536 411.007C513.536 411.007 516.746 407.492 517.051 399.594C517.356 391.696 512.094 334.312 512.094 334.312C512.094 334.312 531.71 339.304 543.487 333.246C543.487 333.246 548.842 336.105 553.834 328.254C558.826 320.403 550.319 311.849 550.319 311.849C550.319 311.849 542.468 319.7 520.707 309.353C498.947 299.006 491.002 289.725 484.241 290.077Z" fill="#B45181"/>
<path d="M377.583 497.697H373.306V503.767L377.583 513.399C377.583 513.399 383.289 514.466 383.653 514.466C384.016 514.466 388.645 513.399 388.645 513.399L390.074 510.903C390.074 510.903 374.372 504.822 377.583 497.697Z" fill="#E6E6F0"/>
<path d="M511.708 503.404L505.286 517.677L532.402 530.566L553.811 531.281C553.811 531.281 555.592 526.289 548.456 523.793L542.749 522.727C542.749 522.727 535.261 509.169 534.546 502.806C534.546 502.806 527.41 504.236 526.343 509.579C526.332 509.462 516.348 514.454 511.708 503.404Z" fill="#B45181"/>
<path d="M374.372 496.268L372.192 498.049L362.607 505.9L384.719 535.195C384.719 535.195 397.199 540.55 402.917 535.195C402.917 535.195 406.433 531.68 398.64 528.774C398.64 528.774 392.57 529.84 392.57 523.782C392.57 517.723 394 511.302 396.086 509.872C396.086 509.872 390.73 508.091 389.312 509.521C388.221 510.723 387.263 512.039 386.453 513.446C386.453 513.446 373.657 508.396 374.372 496.268Z" fill="#B45181"/>
<path opacity="0.1" d="M483.174 271.527C482.812 273.337 482.334 275.121 481.745 276.87C483.597 281.328 487.115 284.887 491.55 286.793C495.985 288.699 500.988 288.8 505.497 287.077C506.438 286.107 507.444 285.202 508.509 284.37C508.509 284.37 485.67 258.684 483.174 271.527Z" fill="black"/>
<path opacity="0.1" d="M481.206 319.173C481.206 319.173 492.267 333.797 508.321 334.16Z" fill="black"/>
<g opacity="0.1">
<path opacity="0.1" d="M547.319 333.492C547.093 333.429 546.874 333.347 546.663 333.246C546.319 333.426 545.967 333.594 545.608 333.75C546.187 333.739 546.762 333.652 547.319 333.492Z" fill="black"/>
<path opacity="0.1" d="M551.115 313.314C550.727 312.815 550.313 312.338 549.873 311.884C549.873 311.884 547.53 314.228 541.741 314.673C544.93 314.989 548.148 314.523 551.115 313.314V313.314Z" fill="black"/>
<path opacity="0.1" d="M515.27 334.312L515.34 335.074C520.046 335.946 524.828 336.338 529.613 336.246C524.78 336.07 519.977 335.422 515.27 334.312V334.312Z" fill="black"/>
<path opacity="0.1" d="M490.662 403.543C472.112 401.398 456.422 396.77 461.367 392.844C466.312 388.918 471.351 366.443 471.351 366.443C471.351 366.443 471.351 366.572 471.433 366.361C471.638 365.783 471.608 365.148 471.351 364.592C463.535 347.308 464.578 316.548 464.578 316.548C464.578 316.548 463.511 301.209 468.503 295.455C472.218 291.202 480.877 290.323 485.061 290.147C484.671 290.117 484.279 290.117 483.889 290.147C483.889 290.147 469.98 289.795 464.988 295.502C459.996 301.209 461.062 316.595 461.062 316.595C461.062 316.595 460.019 347.401 467.835 364.639C468.093 365.195 468.122 365.83 467.917 366.408C467.835 366.619 467.835 366.49 467.835 366.49C467.835 366.49 462.879 388.895 457.84 392.821C452.801 396.746 468.538 401.386 487.135 403.519C505.731 405.652 513.172 411.007 513.172 411.007C513.546 410.559 513.875 410.076 514.157 409.566C510.536 407.82 503.083 404.949 490.662 403.543Z" fill="black"/>
</g>
<path d="M499.579 287.581C509.824 287.581 518.129 279.276 518.129 269.031C518.129 258.786 509.824 250.481 499.579 250.481C489.335 250.481 481.03 258.786 481.03 269.031C481.03 279.276 489.335 287.581 499.579 287.581Z" fill="#FDC2CC"/>
<path opacity="0.1" d="M525.98 260.735C524.445 264.578 519.863 266.031 515.844 267.027C510.102 268.433 503.915 269.816 498.419 267.637C497.707 267.237 496.886 267.077 496.076 267.18C495.423 267.441 494.878 267.916 494.529 268.527C488.471 277.152 489.455 288.647 487.885 299.076C487.393 302.322 486.561 305.673 484.369 308.099C480.104 312.786 472.054 312.61 468.128 317.591C465.539 320.872 465.515 325.43 465.538 329.613C465.538 334.074 465.499 338.539 465.421 343.007C465.351 345.937 465.21 348.972 463.886 351.573C461.636 355.979 456.621 358.077 451.992 359.776C449.11 360.854 446.133 361.944 443.04 361.651C439.946 361.358 436.853 359.307 436.454 356.213C435.904 352.018 440.227 349.089 443.204 346.066C447.961 341.249 449.918 334.242 450.094 327.469C450.261 324.733 449.862 321.993 448.922 319.419C447.833 316.759 445.887 314.521 444.716 311.896C441.106 303.81 445.559 294.459 450.891 287.381C456.223 280.304 462.773 273.402 463.91 264.625C464.009 262.726 464.279 260.839 464.718 258.989C465.539 256.434 467.484 249.38 469.628 247.763C473.061 245.177 477.092 243.5 481.346 242.888C484.639 242.408 488.002 242.583 491.271 241.951C495.091 241.212 498.642 239.396 502.462 238.716C510.723 237.252 519.688 246.849 523.309 254.419C524.305 256.739 526.918 258.379 525.98 260.735Z" fill="black"/>
<path d="M525.98 260.02C524.445 263.863 519.863 265.316 515.844 266.312C510.102 267.719 503.915 269.101 498.419 266.922C497.707 266.522 496.886 266.362 496.076 266.465C495.423 266.727 494.878 267.201 494.529 267.812C488.471 276.437 489.455 287.932 487.885 298.361C487.393 301.607 486.561 304.959 484.369 307.384C480.104 312.071 472.054 311.896 468.128 316.876C465.539 320.157 465.515 324.715 465.538 328.899C465.538 333.359 465.499 337.824 465.421 342.292C465.351 345.222 465.21 348.257 463.886 350.858C461.636 355.264 456.621 357.362 451.992 359.061C449.11 360.139 446.133 361.229 443.04 360.936C439.946 360.643 436.853 358.592 436.454 355.499C435.904 351.304 440.227 348.374 443.204 345.351C447.961 340.535 449.918 333.527 450.094 326.754C450.261 324.019 449.862 321.278 448.922 318.704C447.833 316.044 445.887 313.806 444.716 311.181C441.106 303.095 445.559 293.744 450.891 286.667C456.223 279.589 462.773 272.687 463.91 263.91C464.009 262.011 464.279 260.124 464.718 258.274C465.539 255.719 467.484 248.665 469.628 247.048C473.061 244.462 477.092 242.785 481.346 242.173C484.639 241.693 488.002 241.869 491.271 241.236C495.091 240.498 498.642 238.681 502.462 238.002C510.723 236.537 519.688 246.134 523.309 253.704C524.305 256.024 526.918 257.664 525.98 260.02Z" fill="#F569BC"/>
<path d="M585.918 224.362H894.302V532.722H585.918V224.362Z" fill="#F7DF1E"/>
<path d="M667.019 482.054L690.619 467.769C695.177 475.843 699.314 482.675 709.251 482.675C718.777 482.675 724.777 478.948 724.777 464.465V365.928H753.756V464.863C753.756 494.873 736.179 508.536 710.493 508.536C687.314 508.536 673.862 496.525 667.03 482.042L667.019 482.054ZM769.493 478.937L793.082 465.273C799.292 475.421 807.366 482.85 821.65 482.85C833.661 482.85 841.313 476.851 841.313 468.566C841.313 458.629 833.45 455.114 820.221 449.313L812.979 446.208C792.074 437.314 778.2 426.135 778.2 402.535C778.2 380.798 794.757 364.24 820.631 364.24C839.052 364.24 852.27 370.662 861.82 387.419L839.263 401.914C834.294 393.008 828.915 389.493 820.631 389.493C812.147 389.493 806.757 394.871 806.757 401.914C806.757 410.609 812.135 414.124 824.556 419.491L831.798 422.596C856.406 433.142 870.304 443.911 870.304 468.133C870.304 494.217 849.809 508.501 822.26 508.501C795.308 508.501 777.965 495.611 769.528 478.901" fill="black"/>
<g opacity="0.1">
<path opacity="0.1" d="M850.196 689.463C850.196 689.463 868.429 625.436 876.948 619.354C879.561 617.439 881.923 615.203 883.979 612.698C888.138 607.665 890.232 601.24 889.838 594.723L886.264 531.808L946.026 494.967L945.217 493.221L882.619 531.82L886.193 594.734C886.587 601.252 884.493 607.676 880.334 612.71C878.279 615.214 875.917 617.45 873.304 619.366C864.808 625.436 846.551 689.463 846.551 689.463C846.551 689.463 867.222 690.635 872.893 694.736C872.893 694.736 872.893 694.104 873.046 693.084C865.066 690.342 850.196 689.463 850.196 689.463Z" fill="black"/>
<path opacity="0.1" d="M979.481 685.819C979.481 685.819 982.727 667.984 979.481 663.555C976.235 659.125 967.318 618.569 967.318 618.569V604.765C951.111 599.094 932.058 566.26 932.058 566.26L930.652 569.939C936.148 578.657 950.807 600.289 963.685 604.789V618.569C963.685 618.569 972.602 659.102 975.848 663.555C979.094 668.008 975.848 685.819 975.848 685.819C975.848 685.819 980.371 691.514 990.355 690.741C982.891 690.12 979.481 685.819 979.481 685.819Z" fill="black"/>
</g>
<path d="M1021.83 461.301L1013.87 461.828L1009.68 462.109V451.973L1015.19 450.977L1018.6 450.356C1018.6 450.356 1029.14 419.151 1039.27 424.823C1049.39 430.494 1021.83 461.301 1021.83 461.301Z" fill="#714B4F"/>
<path opacity="0.1" d="M1013.87 461.828L1009.68 462.109V451.973L1015.19 450.977C1013.26 453.52 1013.33 458.02 1013.87 461.828Z" fill="black"/>
<path d="M934.296 469.211C935.079 469.211 935.714 468.303 935.714 467.183C935.714 466.064 935.079 465.156 934.296 465.156C933.513 465.156 932.878 466.064 932.878 467.183C932.878 468.303 933.513 469.211 934.296 469.211Z" fill="#BA7855"/>
<g opacity="0.1">
<path opacity="0.1" d="M877.967 539.472C877.967 539.472 875.53 508.267 877.967 502.595C880.405 496.924 878.776 477.472 878.776 477.472C878.776 477.472 872.296 468.965 863.378 449.513C857.695 437.127 858.105 428.514 859.148 423.897C859.405 422.771 859.884 421.707 860.558 420.769C861.233 419.832 862.088 419.038 863.074 418.436C868.241 415.272 879.807 407.55 883.24 400.074C885.76 394.59 888.912 391.813 891.185 390.43L891.338 389.54C891.338 389.54 884.858 390.711 880.393 400.484C876.971 407.96 865.394 415.718 860.226 418.846C859.24 419.448 858.385 420.242 857.711 421.18C857.037 422.117 856.557 423.181 856.301 424.307C855.258 428.924 854.859 437.537 860.531 449.923C869.448 469.375 875.928 477.882 875.928 477.882C875.928 477.882 877.545 497.334 875.12 503.006C872.694 508.677 875.12 539.882 875.12 539.882C875.12 539.882 905.517 545.671 923.492 542.566C905.341 544.734 877.967 539.472 877.967 539.472Z" fill="black"/>
<path opacity="0.1" d="M932.667 432.123C932.116 434.619 932.667 449.302 933.124 458.301C935.081 462.297 936.312 464.957 936.312 464.957C936.312 464.957 934.694 435.369 935.503 431.725C936.276 428.209 922.039 402.828 920.621 400.32L917.668 400.519C917.668 400.519 933.487 428.479 932.667 432.123Z" fill="black"/>
<path opacity="0.1" d="M978.473 466.164C960.638 466.574 944.831 449.548 944.831 449.548C944.357 450.208 944.011 450.951 943.811 451.739C948.498 456.098 961.388 466.89 975.637 466.562C988.634 466.484 1001.62 467.161 1014.54 468.59C1014.54 468.59 1014.46 468.32 1014.33 467.863C1002.42 466.632 990.448 466.064 978.473 466.164Z" fill="black"/>
<path opacity="0.1" d="M946.834 500.205C946.834 500.205 946.998 502.736 946.905 506.533C951.123 514.899 958.799 529.207 962.232 529.781L961.634 526.453C955.74 519.048 946.834 500.205 946.834 500.205Z" fill="black"/>
</g>
<path d="M1148.97 296.311L1131.11 496.338L1050.84 518.602L970.798 496.338L952.963 296.311H1148.97Z" fill="#E44D26"/>
<path d="M1050.96 501.588L1115.82 483.612L1131.05 312.669H1050.96V501.588Z" fill="#F16529"/>
<path d="M1016.25 361.744H1050.96V337.207H989.441L990.027 343.792L996.062 411.405H1050.97V386.868H1018.5L1016.25 361.744ZM1021.83 423.674H997.222L1000.66 462.203L1050.86 476.195H1050.97V450.591H1050.87L1023.54 443.208L1021.83 423.674Z" fill="#EBEBEB"/>
<path d="M971.208 241.939H983.676V254.255H995.078V241.939H1007.55V279.249H995.078V266.758H983.676V279.249H971.208V241.939ZM1023.94 254.313H1012.96V241.939H1047.39V254.313H1036.41V279.249H1023.95V254.313H1023.94ZM1052.86 241.939H1065.87L1073.87 255.051L1081.86 241.939H1094.87V279.249H1082.45V260.758L1073.87 274.023H1073.66L1065.07 260.758V279.249H1052.86V241.939ZM1101.07 241.939H1113.54V266.91H1131.11V279.237H1101.1V241.939H1101.07Z" fill="black"/>
<path d="M1050.88 411.405H1081.09L1078.24 443.232L1050.88 450.614V476.195L1101.18 462.25L1101.55 458.102L1107.31 393.5L1107.91 386.915H1050.88V411.452V411.405ZM1050.88 361.686V361.744H1110.15L1110.64 356.225L1111.81 343.781L1112.4 337.195H1050.88V361.674V361.686Z" fill="white"/>
<path d="M251.953 528.012L154.764 501.06L133.109 258.145H371.091L349.413 501.025L251.953 528.012Z" fill="#318CDF" fill-opacity="0.96"/>
<path d="M330.851 485.569L349.377 278.019H252.117V507.353L330.851 485.569Z" fill="#318CDF" fill-opacity="0.96"/>
<path d="M182.817 368.072L185.489 397.859H252.164V368.072H182.817ZM177.45 307.771L180.157 337.558H252.153V307.771H177.391H177.45ZM252.153 445.446H252.024L218.838 436.482L216.717 412.718H186.754L190.926 459.496L251.953 476.476H252.094L252.153 445.446Z" fill="#EBEBEB"/>
<path d="M189.121 192.102H225.201V207.195H204.202V222.288H225.201V237.381H189.121V192.102ZM232.478 192.102H268.558V205.226H247.512V207.851H268.511V238.037H232.419V224.256H253.418V221.631H232.419V192.102H232.478ZM275.835 192.102H311.915V205.226H290.81V207.851H311.809V238.037H275.718V224.256H296.716V221.631H275.718V192.102H275.835Z" fill="black"/>
<path d="M321.254 368.072L326.633 307.771H251.953V337.558H293.939L291.232 368.025H251.953V397.812H288.643L285.127 436.482L251.953 445.47V476.464L313.028 459.531L313.473 454.493L320.504 376.052L321.231 368.049L321.254 368.072Z" fill="white"/>
<path d="M356.244 765.853L334.378 785.212C334.378 785.212 321.887 788.34 315.02 787.707C308.153 787.075 305.024 798.324 321.266 799.578C337.507 800.832 389.348 797.082 389.348 797.082C389.348 797.082 394.34 777.091 379.352 765.853H356.244Z" fill="#47465A"/>
<path opacity="0.05" d="M356.244 765.853L334.378 785.212C334.378 785.212 321.887 788.34 315.02 787.707C308.153 787.075 305.024 798.324 321.266 799.578C337.507 800.832 389.348 797.082 389.348 797.082C389.348 797.082 394.34 777.091 379.352 765.853H356.244Z" fill="black"/>
<path opacity="0.3" d="M390.121 788.446C390.084 790.724 389.821 792.993 389.336 795.219C389.336 795.219 337.495 798.969 321.254 797.715C313.438 797.117 310.122 794.199 309.536 791.41C308.821 794.621 311.657 798.851 321.254 799.613C337.495 800.867 389.336 797.117 389.336 797.117C389.947 794.269 390.21 791.357 390.121 788.446Z" fill="white"/>
<path d="M381.836 411.745C381.836 411.745 395.582 431.104 390.578 444.228C385.574 457.352 416.815 430.482 416.815 430.482C416.815 430.482 406.819 412.917 411.823 394.168L381.836 411.745Z" fill="#FDC2CC"/>
<path d="M378.087 773.353L356.244 792.711C356.244 792.711 343.753 795.84 336.886 795.207C330.019 794.574 326.89 805.824 343.132 807.077C359.373 808.331 411.214 804.581 411.214 804.581C411.214 804.581 416.205 784.591 401.218 773.353H378.087Z" fill="#47465A"/>
<path opacity="0.1" d="M395.429 582.829C390.027 582.056 379.094 575.552 373.481 572.025C371.337 570.677 369.966 569.775 369.966 569.775C369.966 569.775 364.341 554.155 349.354 566.025C344.478 569.985 338.972 573.099 333.066 575.236C330.81 576.035 328.483 576.619 326.117 576.982L327.5 552.28L344.995 541.663L358.775 552.21L366.849 549.128L393.742 569.728C394.897 573.998 395.464 578.406 395.429 582.829V582.829Z" fill="black"/>
<path opacity="0.1" d="M348.159 520.723C348.416 516.095 346.67 507.962 345.663 503.744C349.459 503.252 351.862 502.924 351.862 502.924L356.232 521.672L348.159 520.723Z" fill="black"/>
<path opacity="0.1" d="M412.491 395.445L382.457 412.917C383.728 414.76 384.902 416.669 385.973 418.635C387.701 418.986 389.459 419.163 391.223 419.163C399.226 419.163 402.941 410.761 407.78 405.101C407.429 400.601 411.108 400.484 412.491 395.445Z" fill="black"/>
<path opacity="0.05" d="M419.826 429.498H407.136C407.136 429.498 382.153 441.99 381.532 441.369C381.11 440.947 377.243 441.673 374.794 442.177C375.177 440.788 375.444 439.369 375.591 437.935C383.711 437.314 403.714 423.569 403.714 423.569L419.334 421.073V429.193C419.51 429.274 419.675 429.377 419.826 429.498V429.498Z" fill="black"/>
<path opacity="0.3" d="M411.975 795.934C411.938 798.212 411.675 800.481 411.19 802.707C411.19 802.707 359.349 806.456 343.108 805.203C335.292 804.605 331.976 801.687 331.39 798.898C330.675 802.109 333.511 806.339 343.108 807.101C359.349 808.355 411.19 804.605 411.19 804.605C411.801 801.757 412.064 798.845 411.975 795.934Z" fill="white"/>
<path d="M500.786 563.037C502.934 561.286 504.499 558.924 505.274 556.264C505.86 553.569 504.712 550.346 502.134 549.362C499.251 548.261 496.17 550.253 493.838 552.28C491.506 554.307 488.822 556.604 485.764 556.17C487.336 554.745 488.512 552.938 489.177 550.923C489.842 548.908 489.975 546.756 489.56 544.675C489.428 543.812 489.064 543.002 488.506 542.331C486.901 540.62 484.006 541.359 482.084 542.706C475.991 546.995 474.292 555.268 474.257 562.721C473.647 560.037 474.163 557.237 474.14 554.518C474.116 551.8 473.366 548.659 471.046 547.229C469.607 546.456 467.991 546.073 466.359 546.116C463.617 546.011 460.57 546.292 458.695 548.296C456.352 550.78 456.973 554.963 459 557.67C461.027 560.377 464.097 562.123 466.933 564.021C469.206 565.373 471.144 567.219 472.604 569.423C472.776 569.729 472.918 570.051 473.026 570.384H490.193C494.04 568.424 497.603 565.953 500.786 563.037V563.037Z" fill="#6C63FF"/>
<path d="M532.32 783.067C535.05 780.524 537.616 777.525 538.413 773.88C539.21 770.236 537.651 765.853 534.159 764.506C530.257 763.006 526.074 765.678 522.91 768.455C519.746 771.232 516.114 774.314 511.977 773.728C514.108 771.796 515.701 769.344 516.603 766.613C517.504 763.882 517.683 760.964 517.121 758.143C516.94 756.978 516.446 755.885 515.692 754.979C513.524 752.635 509.587 753.655 506.997 755.483C498.794 761.342 496.451 772.509 496.392 782.61C495.56 778.966 496.263 775.169 496.24 771.431C496.216 767.693 495.197 763.557 492.045 761.541C490.082 760.486 487.874 759.968 485.647 760.041C481.932 759.901 477.796 760.276 475.264 762.994C472.112 766.369 472.921 772.029 475.675 775.743C478.428 779.458 482.588 781.79 486.42 784.356C489.496 786.19 492.12 788.693 494.095 791.68C494.33 792.097 494.522 792.537 494.67 792.992H517.953C523.168 790.347 528 787.008 532.32 783.067V783.067Z" fill="#6C63FF"/>
</svg>
