<svg width="1296" height="854" viewBox="0 0 1296 854" fill="none" xmlns="http://www.w3.org/2000/svg">
<path d="M812.284 329.388C764.464 141.348 599.231 5.61004 405.283 0.165699C302.748 -2.71256 194.853 31.2936 116.297 150.294C-24.1291 363.019 124.927 510.019 228.845 579.87C279.05 613.685 324.287 654.344 363.247 700.67C433.44 783.966 568.476 887.472 729.297 725.294C845.861 607.746 844.137 454.64 812.284 329.388Z" fill="#F2F2F2"/>
<path d="M854.661 625.787C854.661 671.026 827.766 686.824 794.593 686.824C793.821 686.824 793.052 686.815 792.288 686.794C790.752 686.761 789.228 686.694 787.725 686.586C757.783 684.469 734.521 667.857 734.521 625.787C734.521 582.252 790.147 527.315 794.342 523.236L794.351 523.232C794.509 523.073 794.593 522.994 794.593 522.994C794.593 522.994 854.661 580.544 854.661 625.787Z" fill="#3F3D56"/>
<path d="M792.401 679.902L814.373 649.204L792.347 683.271L792.288 686.794C790.752 686.761 789.228 686.694 787.725 686.586L790.092 641.326L790.076 640.975L790.118 640.909L790.339 636.633L768.258 602.479L790.406 633.427L790.46 634.333L792.251 600.137L773.347 564.847L792.48 594.129L794.342 523.236L794.351 522.994V523.232L794.042 579.137L812.858 556.973L793.963 583.951L793.466 614.569L811.038 585.187L793.391 619.078L793.115 636.099L818.624 595.198L793.019 642.04L792.401 679.902Z" fill="#F2F2F2"/>
<path d="M230.585 674.419C230.585 701.526 214.47 710.992 194.592 710.992C194.129 710.992 193.669 710.987 193.211 710.974C192.291 710.954 191.378 710.914 190.477 710.849C172.536 709.581 158.597 699.627 158.597 674.419C158.597 648.333 191.928 615.415 194.442 612.971L194.447 612.968C194.542 612.873 194.592 612.826 194.592 612.826C194.592 612.826 230.585 647.31 230.585 674.419Z" fill="#3F3D56"/>
<path d="M193.279 706.844L206.445 688.45L193.246 708.863L193.211 710.974C192.291 710.954 191.378 710.914 190.477 710.849L191.895 683.73L191.885 683.52L191.91 683.48L192.043 680.918L178.812 660.453L192.083 678.997L192.116 679.54L193.189 659.049L181.862 637.904L193.326 655.45L194.442 612.971L194.447 612.826V612.968L194.262 646.467L205.536 633.186L194.214 649.351L193.917 667.697L204.446 650.091L193.872 670.399L193.707 680.598L208.991 656.09L193.649 684.158L193.279 706.844Z" fill="#F2F2F2"/>
<path d="M513.018 235.617H228.928V506.295H513.018V235.617Z" fill="url(#paint0_linear)"/>
<path d="M506.922 241.713H235.024V500.199H506.922V241.713Z" fill="white"/>
<path d="M497.168 251.467H244.779V490.445H497.168V251.467Z" fill="#6C63FF"/>
<g opacity="0.5">
<path opacity="0.5" d="M470.097 36H97V199.039H470.097V36Z" fill="url(#paint1_linear)"/>
</g>
<path d="M465.343 39H102V195.067H465.343V39Z" fill="white"/>
<path d="M455.463 49H113V185.558H455.463V49Z" fill="#6C63FF"/>
<path d="M762.969 36.8756H548.377V251.467H762.969V36.8756Z" fill="url(#paint2_linear)"/>
<path d="M756.873 42.9719H554.474V245.371H756.873V42.9719Z" fill="white"/>
<path d="M747.118 52.7261H564.228V235.617H747.118V52.7261Z" fill="#6C63FF"/>
<path d="M589.72 105.523L655.774 81.9886L723.606 105.105L712.623 192.497L655.774 223.981L599.814 192.915L589.72 105.523Z" fill="#E23237"/>
<path d="M723.606 105.105L655.774 81.9886V223.981L712.623 192.549L723.606 105.105V105.105Z" fill="#B52E31"/>
<path d="M655.878 98.5676L614.719 190.143L630.095 189.882L638.358 169.223H675.281L684.329 190.143L699.025 190.405L655.878 98.5676V98.5676ZM655.983 127.908L669.895 156.985H643.745L655.983 127.908V127.908Z" fill="white"/>
<path d="M874.09 292H590V506.592H874.09V292Z" fill="url(#paint3_linear)"/>
<path d="M867.898 298H596V500.399H867.898V298Z" fill="white"/>
<path d="M858.389 308H606V490.891H858.389V308Z" fill="#6C63FF"/>
<g opacity="0.7">
<g opacity="0.1">
<path opacity="0.1" d="M694.37 601.043V619.59V625.773V708.203V714.386V731.902H669.64H661.397V714.386V708.203V625.773V619.59V601.043H669.64H694.37Z" fill="url(#paint4_linear)"/>
</g>
<g opacity="0.1">
<path opacity="0.1" d="M659.337 601.043V619.59V625.773V708.203V714.386V731.902H634.607H626.364V714.386V708.203V625.773V619.59V601.043H634.607H659.337Z" fill="url(#paint5_linear)"/>
</g>
</g>
<path d="M220.702 696.516H162.661C154.765 696.516 148.364 702.917 148.364 710.814V719.085C148.364 726.981 154.765 733.382 162.661 733.382H220.702C228.598 733.382 234.999 726.981 234.999 719.085V710.814C234.999 702.917 228.598 696.516 220.702 696.516Z" fill="#6C63FF"/>
<g opacity="0.7">
<g opacity="0.1">
<path opacity="0.1" d="M310.832 602.043V620.59V626.773V709.203V715.386V732.902H335.562H343.805V715.386V709.203V626.773V620.59V602.043H335.562H310.832Z" fill="url(#paint6_linear)"/>
</g>
<g opacity="0.1">
<path opacity="0.1" d="M345.866 602.043V620.59V626.773V709.203V715.386V732.902H370.595H378.838V715.386V709.203V626.773V620.59V602.043H370.595H345.866Z" fill="url(#paint7_linear)"/>
</g>
<g opacity="0.1">
<path opacity="0.1" d="M444.601 724.383L417.251 621.838L415.658 615.865L410.878 597.944L379.019 606.441L383.799 624.362L385.068 629.119L406.635 709.982L408.228 715.955L412.742 732.88L444.601 724.383Z" fill="url(#paint8_linear)"/>
</g>
</g>
<path d="M345.516 605.241H314.207V729.497H345.516V605.241Z" fill="#535461"/>
<path d="M345.516 622.853H314.207V628.723H345.516V622.853Z" fill="#6C63FF"/>
<path d="M345.516 706.994H314.207V712.865H345.516V706.994Z" fill="#6C63FF"/>
<path opacity="0.1" d="M345.516 605.241H337.689V729.497H345.516V605.241Z" fill="black"/>
<path d="M378.781 605.241H347.473V729.497H378.781V605.241Z" fill="#535461"/>
<path d="M378.781 622.853H347.473V628.723H378.781V622.853Z" fill="#6C63FF"/>
<path d="M378.781 706.994H347.473V712.865H378.781V706.994Z" fill="#6C63FF"/>
<path opacity="0.1" d="M378.781 605.241H370.954V729.497H378.781V605.241Z" fill="black"/>
<path d="M409.205 601.349L378.954 609.417L410.975 729.476L441.226 721.408L409.205 601.349Z" fill="#535461"/>
<path d="M413.743 618.365L383.492 626.434L385.005 632.106L415.256 624.037L413.743 618.365Z" fill="#6C63FF"/>
<path d="M435.427 699.665L405.176 707.733L406.689 713.405L436.94 705.337L435.427 699.665Z" fill="#6C63FF"/>
<path opacity="0.1" d="M409.205 601.349L401.642 603.366L433.663 723.425L441.226 721.408L409.205 601.349Z" fill="black"/>
<path d="M658.864 729.497H690.172V605.241H658.864V729.497Z" fill="#535461"/>
<path d="M658.864 628.723H690.172V622.853H658.864V628.723Z" fill="#6C63FF"/>
<path d="M658.864 712.865H690.172V706.994H658.864V712.865Z" fill="#6C63FF"/>
<path opacity="0.1" d="M658.864 729.497H666.691V605.241H658.864V729.497Z" fill="black"/>
<path d="M625.598 729.497H656.907V605.241H625.598V729.497Z" fill="#535461"/>
<path d="M625.598 628.723H656.907V622.853H625.598V628.723Z" fill="#6C63FF"/>
<path d="M625.598 712.865H656.907V706.994H625.598V712.865Z" fill="#6C63FF"/>
<path opacity="0.1" d="M625.598 729.497H633.425V605.241H625.598V729.497Z" fill="black"/>
<path d="M734.239 670.163H847.75C847.75 670.163 870.144 698.734 835.395 741.204H745.822C745.822 741.204 713.39 711.861 734.239 670.163Z" fill="#6C63FF"/>
<g opacity="0.1">
<path opacity="0.1" d="M847.75 670.163H734.239C733.98 670.68 733.736 671.194 733.494 671.707H843.889C843.889 671.707 865.733 699.588 832.772 741.204H835.395C870.144 698.734 847.75 670.163 847.75 670.163Z" fill="black"/>
</g>
<path d="M879.169 728.4H92V755.084H879.169V728.4Z" fill="#E0E0E0"/>
<path d="M845.815 755.084H125.355V766H845.815V755.084Z" fill="#E0E0E0"/>
<path opacity="0.1" d="M845.815 755.084H125.355V758.723H845.815V755.084Z" fill="black"/>
<path d="M374.002 437C373.33 437 372.703 436.814 372.121 436.489L366.164 432.814C365.268 432.302 365.716 432.116 365.985 432.024C367.194 431.605 367.418 431.512 368.672 430.768C368.806 430.675 368.986 430.721 369.12 430.814L373.689 433.651C373.868 433.744 374.092 433.744 374.226 433.651L392.097 422.907C392.276 422.814 392.366 422.628 392.366 422.396V400.954C392.366 400.721 392.276 400.535 392.097 400.442L374.226 389.745C374.047 389.651 373.823 389.651 373.689 389.745L355.817 400.442C355.638 400.535 355.548 400.768 355.548 400.954V422.395C355.548 422.582 355.638 422.814 355.817 422.907L360.699 425.837C363.342 427.233 364.999 425.605 364.999 423.977V402.814C364.999 402.535 365.223 402.256 365.537 402.256H367.821C368.09 402.256 368.358 402.488 368.358 402.814V423.977C368.358 427.651 366.432 429.791 363.073 429.791C362.043 429.791 361.237 429.791 358.952 428.628L354.249 425.837C353.085 425.14 352.368 423.837 352.368 422.442V401C352.368 399.605 353.085 398.302 354.249 397.605L372.121 386.861C373.241 386.21 374.764 386.21 375.883 386.861L393.754 397.605C394.919 398.302 395.636 399.605 395.636 401V422.442C395.636 423.837 394.919 425.14 393.754 425.837L375.883 436.581C375.301 436.861 374.629 437 374.002 437H374.002ZM379.511 422.256C371.673 422.256 370.06 418.535 370.06 415.372C370.06 415.093 370.284 414.814 370.598 414.814H372.927C373.196 414.814 373.42 415 373.42 415.279C373.778 417.744 374.808 418.954 379.556 418.954C383.318 418.954 384.931 418.07 384.931 415.977C384.931 414.768 384.483 413.884 378.615 413.279C373.733 412.767 370.687 411.651 370.687 407.605C370.687 403.837 373.733 401.605 378.839 401.605C384.572 401.605 387.394 403.651 387.753 408.116C387.753 408.256 387.708 408.395 387.618 408.535C387.529 408.628 387.394 408.721 387.26 408.721H384.931C384.707 408.721 384.483 408.535 384.438 408.302C383.901 405.745 382.512 404.907 378.839 404.907C374.719 404.907 374.226 406.396 374.226 407.512C374.226 408.861 374.808 409.279 380.362 410.023C385.871 410.768 388.469 411.837 388.469 415.837C388.425 419.93 385.2 422.256 379.511 422.256Z" fill="#539E43"/>
<path d="M318.551 353.14C318.551 352.303 318.103 351.512 317.387 351.093L298.395 339.744C298.081 339.558 297.723 339.465 297.365 339.418H297.186C296.828 339.418 296.469 339.558 296.156 339.744L277.165 351.093C276.448 351.512 276 352.302 276 353.14L276.045 383.651C276.045 384.07 276.269 384.488 276.627 384.675C276.986 384.907 277.433 384.907 277.747 384.675L289.034 377.977C289.751 377.558 290.199 376.768 290.199 375.931V361.651C290.199 360.814 290.646 360.024 291.363 359.605L296.156 356.721C296.514 356.489 296.917 356.395 297.32 356.395C297.723 356.395 298.126 356.489 298.44 356.721L303.233 359.605C303.95 360.024 304.397 360.814 304.397 361.651V375.931C304.397 376.768 304.845 377.558 305.562 377.977L316.849 384.675C317.208 384.907 317.655 384.907 318.014 384.675C318.372 384.488 318.596 384.07 318.596 383.651L318.551 353.14Z" fill="#333333"/>
<path d="M409.834 311.14C409.476 310.953 409.028 310.953 408.714 311.14C408.356 311.372 408.132 311.744 408.132 312.163V342.396C408.132 342.675 407.998 342.953 407.729 343.14C407.461 343.279 407.192 343.279 406.923 343.14L402.175 340.303C401.827 340.097 401.434 339.989 401.033 339.989C400.632 339.989 400.239 340.097 399.891 340.303L380.9 351.698C380.183 352.116 379.735 352.907 379.735 353.744V376.488C379.735 377.325 380.183 378.117 380.9 378.535L399.891 389.93C400.239 390.136 400.632 390.244 401.033 390.244C401.434 390.244 401.827 390.136 402.175 389.93L421.167 378.535C421.883 378.117 422.331 377.326 422.331 376.488V319.791C422.331 318.907 421.883 318.117 421.167 317.698L409.835 311.14H409.834ZM408.088 369C408.088 369.233 407.998 369.419 407.819 369.512L401.324 373.419C401.234 373.464 401.134 373.488 401.033 373.488C400.932 373.488 400.833 373.464 400.742 373.419L394.247 369.512C394.068 369.419 393.978 369.186 393.978 369V361.186C393.978 360.954 394.068 360.768 394.247 360.675L400.742 356.767C400.833 356.721 400.932 356.698 401.033 356.698C401.134 356.698 401.234 356.721 401.324 356.767L407.819 360.675C407.998 360.767 408.088 361 408.088 361.186V369Z" fill="#333333"/>
<path d="M473.034 361C473.751 360.582 474.154 359.791 474.154 358.953V353.419C474.154 352.582 473.706 351.791 473.034 351.372L454.177 340.024C453.829 339.818 453.435 339.71 453.035 339.71C452.635 339.71 452.241 339.818 451.893 340.024L432.902 351.419C432.185 351.837 431.737 352.628 431.737 353.465V376.209C431.737 377.047 432.185 377.837 432.902 378.256L451.758 389.419C452.475 389.837 453.326 389.837 453.998 389.419L465.419 382.815C465.778 382.628 466.002 382.21 466.002 381.791C466.002 381.373 465.778 380.954 465.419 380.768L446.339 369.373C445.981 369.14 445.757 368.768 445.757 368.35V361.233C445.757 360.815 445.981 360.396 446.339 360.21L452.296 356.675C452.47 356.561 452.672 356.5 452.878 356.5C453.084 356.5 453.286 356.561 453.461 356.675L459.417 360.21C459.776 360.442 460 360.814 460 361.233V366.815C460 367.233 460.224 367.652 460.582 367.838C460.941 368.07 461.388 368.07 461.747 367.838L473.034 361V361Z" fill="#333333"/>
<path d="M452.744 359.931C452.81 359.885 452.888 359.861 452.968 359.861C453.047 359.861 453.125 359.885 453.192 359.931L456.82 362.117C456.954 362.209 457.044 362.349 457.044 362.535V366.907C457.044 367.093 456.954 367.233 456.82 367.326L453.192 369.512C453.125 369.557 453.047 369.581 452.968 369.581C452.888 369.581 452.81 369.557 452.744 369.512L449.116 367.326C448.981 367.233 448.892 367.093 448.892 366.907V362.535C448.892 362.349 448.981 362.209 449.116 362.117L452.744 359.931V359.931Z" fill="#539E43"/>
<mask id="mask0" mask-type="alpha" maskUnits="userSpaceOnUse" x="328" y="339" width="43" height="51">
<path d="M350.308 340.117C349.96 339.911 349.566 339.803 349.166 339.803C348.765 339.803 348.371 339.911 348.023 340.117L329.167 351.418C328.45 351.837 328.047 352.628 328.047 353.465V376.116C328.047 376.953 328.495 377.744 329.167 378.162L348.023 389.465C348.371 389.671 348.765 389.779 349.166 389.779C349.566 389.779 349.96 389.671 350.308 389.465L369.165 378.162C369.881 377.744 370.285 376.953 370.285 376.116V353.465C370.285 352.628 369.836 351.837 369.165 351.419L350.308 340.117Z" fill="white"/>
</mask>
<g mask="url(#mask0)">
<path d="M350.308 340.117C349.96 339.911 349.566 339.803 349.166 339.803C348.765 339.803 348.371 339.911 348.023 340.117L329.167 351.418C328.45 351.837 328.047 352.628 328.047 353.465V376.116C328.047 376.953 328.495 377.744 329.167 378.162L348.023 389.465C348.371 389.671 348.765 389.779 349.166 389.779C349.566 389.779 349.96 389.671 350.308 389.465L369.165 378.162C369.881 377.744 370.285 376.953 370.285 376.116V353.465C370.285 352.628 369.836 351.837 369.165 351.419L350.308 340.117Z" fill="url(#paint9_linear)"/>
<path d="M369.209 351.419L350.263 340.117C350.077 340.019 349.882 339.941 349.681 339.884L328.45 377.652C328.626 377.875 328.838 378.064 329.077 378.21L348.023 389.512C348.561 389.838 349.188 389.931 349.77 389.744L369.702 351.884C369.568 351.698 369.388 351.558 369.209 351.419V351.419Z" fill="url(#paint10_linear)"/>
<path fill-rule="evenodd" clip-rule="evenodd" d="M369.254 378.163C369.792 377.837 370.195 377.279 370.374 376.675L349.591 339.837C349.053 339.744 348.471 339.791 347.978 340.116L329.166 351.372L349.456 389.791C349.751 389.741 350.038 389.647 350.307 389.512L369.254 378.163L369.254 378.163Z" fill="url(#paint11_linear)"/>
<path fill-rule="evenodd" clip-rule="evenodd" d="M369.254 378.163L350.353 389.465C350.086 389.606 349.798 389.701 349.502 389.744L349.86 390.442L370.822 377.838V377.558L370.284 376.628C370.195 377.279 369.792 377.837 369.254 378.163V378.163Z" fill="url(#paint12_linear)"/>
<path fill-rule="evenodd" clip-rule="evenodd" d="M369.254 378.163L350.353 389.465C350.086 389.606 349.798 389.701 349.502 389.744L349.86 390.442L370.822 377.838V377.558L370.284 376.628C370.195 377.279 369.792 377.837 369.254 378.163V378.163Z" fill="url(#paint13_linear)"/>
</g>
<path fill-rule="evenodd" clip-rule="evenodd" d="M834.578 392.881C834.364 392.922 834.149 393.375 834.149 393.621C834.106 395.268 834.064 399.632 834.064 402.596C834.064 402.678 834.192 402.843 834.321 402.843C834.964 402.884 836.508 402.925 837.838 402.925C839.682 402.925 840.755 402.678 841.356 402.432C842.899 401.69 843.628 400.085 843.628 398.314C843.628 394.322 840.712 392.798 836.379 392.798C836.079 392.757 835.222 392.757 834.578 392.881V392.881ZM845.645 411.282C845.645 407.206 842.513 404.942 836.852 404.942C836.594 404.942 834.793 404.901 834.364 404.983C834.235 405.025 834.064 405.107 834.064 405.231C834.064 408.153 834.02 412.805 834.149 414.616C834.235 415.398 834.836 416.51 835.565 416.839C836.337 417.251 838.095 417.333 839.296 417.333C842.685 417.333 845.645 415.522 845.645 411.282V411.282ZM825.828 390.617C826.257 390.617 827.543 390.74 830.846 390.74C833.978 390.74 836.465 390.658 839.511 390.658C843.242 390.658 848.389 391.934 848.389 397.286C848.389 399.92 846.459 402.02 843.929 403.049C843.8 403.09 843.8 403.172 843.929 403.213C847.531 404.078 850.706 406.218 850.706 410.252C850.706 414.205 848.132 416.716 844.4 418.28C842.127 419.227 839.296 419.556 836.423 419.556C834.235 419.556 828.359 419.309 825.099 419.392C824.756 419.268 825.399 417.786 825.699 417.539C826.472 417.498 827.072 417.456 827.887 417.209C829.045 416.922 829.174 416.592 829.345 414.904C829.431 413.464 829.431 408.359 829.431 404.736C829.431 399.755 829.474 396.38 829.431 394.733C829.388 393.458 828.916 393.045 827.973 392.798C827.243 392.675 826.043 392.51 825.056 392.387C824.841 392.181 825.57 390.781 825.828 390.617ZM801.078 416.222C802.108 417.003 804.124 417.332 805.926 417.332C808.242 417.332 810.558 416.922 812.789 414.986C815.062 413.011 816.649 409.965 816.649 405.107C816.649 400.455 814.805 396.668 811.03 394.445C808.885 393.169 806.14 392.634 802.966 392.634C802.023 392.634 801.122 392.675 800.564 392.922C800.435 393.004 800.135 393.375 800.135 393.58C800.049 394.404 800.049 400.743 800.049 404.448C800.049 408.277 800.049 413.628 800.135 414.246C800.135 414.863 800.435 415.81 801.079 416.222H801.078ZM791.342 390.617C792.157 390.617 795.288 390.74 796.789 390.74C799.492 390.74 801.422 390.617 806.526 390.617C810.815 390.617 814.418 391.728 816.992 393.827C820.123 396.421 821.753 400.003 821.753 404.366C821.753 410.582 818.794 414.163 815.834 416.222C812.875 418.321 809.014 419.556 803.524 419.556C800.607 419.556 795.589 419.474 791.428 419.432H791.385C791.171 419.062 791.728 417.621 792.071 417.58C793.187 417.456 793.487 417.415 794.045 417.21C794.945 416.88 795.117 416.427 795.246 414.904C795.374 412.064 795.331 408.647 795.331 404.777C795.331 402.02 795.374 396.627 795.288 394.898C795.16 393.457 794.516 393.087 793.229 392.839C792.586 392.716 791.728 392.551 790.527 392.428C790.355 392.14 791.128 390.864 791.342 390.617V390.617Z" fill="#8E714E"/>
<path fill-rule="evenodd" clip-rule="evenodd" d="M739.442 417.827C738.37 417.703 737.598 417.539 736.654 417.127C736.525 417.045 736.31 416.633 736.31 416.468C736.225 415.028 736.225 410.911 736.225 408.153C736.225 405.93 735.839 403.996 734.852 402.637C733.694 401.072 732.022 400.167 729.877 400.167C727.99 400.167 725.459 401.402 723.357 403.131C723.314 403.172 722.971 403.461 723.014 403.007C723.014 402.555 723.1 401.649 723.143 401.031C723.186 400.455 722.842 400.167 722.842 400.167C721.47 400.826 717.61 401.69 716.194 401.813C715.165 402.02 714.907 402.966 715.98 403.296H716.023C717.18 403.625 717.953 403.996 718.553 404.366C718.982 404.695 718.939 405.148 718.939 405.519C718.982 408.606 718.982 413.34 718.853 415.934C718.811 416.963 718.51 417.333 717.738 417.498L717.824 417.456C717.223 417.58 716.752 417.703 716.022 417.786C715.765 418.033 715.765 419.35 716.022 419.638C716.494 419.638 718.982 419.515 721.041 419.515C723.872 419.515 725.33 419.638 726.059 419.638C726.36 419.309 726.445 418.074 726.274 417.786C725.459 417.745 724.858 417.663 724.301 417.498C723.529 417.332 723.314 416.963 723.271 416.098C723.186 413.916 723.186 409.306 723.186 406.177C723.186 405.313 723.443 404.901 723.7 404.654C724.687 403.831 726.274 403.255 727.689 403.255C729.062 403.255 729.962 403.666 730.649 404.202C731.592 404.942 731.893 406.013 732.021 406.795C732.236 408.565 732.15 412.064 732.15 415.11C732.15 416.757 732.021 417.168 731.378 417.374C731.078 417.498 730.306 417.663 729.405 417.744C729.105 418.033 729.191 419.309 729.405 419.597C730.649 419.597 732.107 419.474 734.252 419.474C736.911 419.474 738.627 419.597 739.314 419.597C739.527 419.35 739.613 418.156 739.442 417.827V417.827ZM751.323 402.102C749.05 402.102 747.634 403.79 747.634 406.424C747.634 409.1 748.878 412.187 752.395 412.187C752.996 412.187 754.112 411.94 754.626 411.364C755.441 410.623 755.999 409.141 755.999 407.577C755.999 404.16 754.24 402.102 751.323 402.102V402.102ZM751.023 420.297C750.165 420.297 749.564 420.544 749.179 420.75C747.377 421.861 746.562 422.931 746.562 424.208C746.562 425.401 747.034 426.348 748.063 427.171C749.307 428.2 751.023 428.695 753.21 428.695C757.585 428.695 759.516 426.43 759.516 424.208C759.516 422.643 758.701 421.614 757.028 421.038C755.827 420.544 753.64 420.297 751.023 420.297V420.297ZM751.323 431C748.707 431 746.819 430.465 745.19 429.271C743.602 428.118 742.916 426.389 742.916 425.196C742.916 424.866 743.002 423.96 743.774 423.137C744.246 422.643 745.276 421.697 747.72 420.091C747.806 420.05 747.849 420.009 747.849 419.926C747.849 419.844 747.763 419.761 747.677 419.721C745.661 418.98 745.061 417.786 744.889 417.127V417.045C744.847 416.798 744.761 416.551 745.147 416.304C745.447 416.098 745.876 415.851 746.347 415.563C747.077 415.151 747.849 414.698 748.321 414.328C748.407 414.246 748.407 414.164 748.407 414.081C748.407 413.998 748.321 413.916 748.235 413.875C745.233 412.928 743.732 410.788 743.732 407.577C743.732 405.477 744.718 403.584 746.476 402.39C747.677 401.485 750.68 400.373 752.653 400.373H752.782C754.798 400.414 755.913 400.826 757.499 401.361C758.357 401.649 759.173 401.772 760.288 401.772C761.961 401.772 762.69 401.278 763.29 400.703C763.333 400.785 763.419 400.991 763.462 401.526C763.505 402.061 763.333 402.843 762.904 403.419C762.561 403.872 761.789 404.202 761.017 404.202H760.802C760.03 404.119 759.687 404.037 759.687 404.037L759.516 404.119C759.473 404.202 759.516 404.284 759.559 404.407L759.602 404.49C759.687 404.86 759.859 405.971 759.859 406.26C759.859 409.635 758.443 411.117 756.942 412.228C755.484 413.258 753.811 413.916 751.924 414.081C751.881 414.081 751.71 414.081 751.323 414.122C751.109 414.122 750.809 414.164 750.765 414.164H750.723C750.38 414.246 749.522 414.657 749.522 415.357C749.522 415.974 749.908 416.716 751.752 416.839C752.138 416.88 752.524 416.88 752.953 416.922C755.398 417.086 758.443 417.292 759.859 417.745C761.832 418.444 763.076 420.132 763.076 422.149C763.076 425.196 760.803 428.036 757.028 429.806C755.184 430.588 753.339 431 751.323 431V431ZM775.772 402.308C774.871 402.308 774.056 402.513 773.456 402.925C771.783 403.913 770.925 405.889 770.925 408.77C770.925 414.164 773.756 417.951 777.788 417.951C778.989 417.951 779.933 417.621 780.748 416.963C781.991 415.974 782.635 413.998 782.635 411.24C782.635 405.889 779.847 402.308 775.772 402.308L775.772 402.308ZM776.544 419.926C769.252 419.926 766.636 414.781 766.636 409.965C766.636 406.589 768.051 403.996 770.882 402.143C772.898 400.949 775.301 400.291 777.445 400.291C783.021 400.291 786.924 404.119 786.924 409.635C786.924 413.381 785.38 416.345 782.42 418.156C781.005 419.062 778.56 419.926 776.544 419.926H776.544V419.926ZM700.109 402.308C699.208 402.308 698.394 402.513 697.793 402.925C696.12 403.913 695.262 405.889 695.262 408.77C695.262 414.164 698.093 417.951 702.125 417.951C703.326 417.951 704.27 417.621 705.085 416.963C706.328 415.974 706.972 413.998 706.972 411.24C706.972 405.889 704.227 402.308 700.109 402.308ZM700.881 419.926C693.589 419.926 690.973 414.781 690.973 409.965C690.973 406.589 692.388 403.996 695.219 402.143C697.235 400.949 699.637 400.291 701.782 400.291C707.358 400.291 711.261 404.119 711.261 409.635C711.261 413.381 709.717 416.345 706.757 418.156C705.385 419.062 702.94 419.926 700.881 419.926ZM651.855 419.515C651.769 419.392 651.683 419.021 651.726 418.568C651.726 418.238 651.812 418.033 651.855 417.951C652.756 417.827 653.227 417.703 653.742 417.58C654.6 417.374 654.943 416.922 654.986 415.893C655.115 413.423 655.115 408.729 655.072 405.477V405.395C655.072 405.025 655.072 404.571 654.6 404.242C653.913 403.831 653.099 403.461 652.026 403.172C651.641 403.049 651.383 402.843 651.426 402.596C651.426 402.349 651.683 402.061 652.241 401.978C653.656 401.855 657.345 400.991 658.803 400.373C658.889 400.455 659.018 400.703 659.018 401.032L658.975 401.484C658.932 401.937 658.889 402.473 658.889 403.007C658.889 403.172 659.061 403.296 659.232 403.296C659.318 403.296 659.404 403.255 659.49 403.213C662.235 401.155 664.722 400.414 666.009 400.414C668.111 400.414 669.741 401.361 670.985 403.337C671.071 403.461 671.157 403.502 671.285 403.502C671.371 403.502 671.499 403.461 671.542 403.378C674.073 401.526 676.604 400.414 678.277 400.414C682.265 400.414 684.625 403.255 684.625 408.071C684.625 409.429 684.625 411.199 684.582 412.805C684.582 414.246 684.539 415.563 684.539 416.51C684.539 416.715 684.839 417.374 685.311 417.498C685.911 417.786 686.727 417.909 687.799 418.074H687.842C687.928 418.362 687.756 419.432 687.585 419.638C687.327 419.638 686.941 419.638 686.512 419.597C685.427 419.543 684.34 419.515 683.252 419.515C680.593 419.515 679.221 419.556 677.89 419.638C677.805 419.309 677.762 418.321 677.89 418.074C678.663 417.951 679.049 417.827 679.521 417.704C680.379 417.456 680.593 417.086 680.636 416.016C680.636 415.234 680.807 408.565 680.55 406.959C680.293 405.313 679.006 403.378 676.175 403.378C675.102 403.378 673.43 403.79 671.8 404.983C671.714 405.066 671.628 405.271 671.628 405.395V405.436C671.8 406.3 671.8 407.289 671.8 408.812V411.487C671.8 413.34 671.757 415.069 671.8 416.386C671.8 417.292 672.358 417.498 672.83 417.663C673.087 417.703 673.258 417.745 673.473 417.786C673.859 417.868 674.245 417.951 674.845 418.074C674.931 418.239 674.931 418.774 674.803 419.227C674.759 419.474 674.673 419.597 674.631 419.638C673.173 419.597 671.671 419.556 669.484 419.556C668.841 419.556 667.725 419.597 666.781 419.597C666.009 419.597 665.28 419.638 664.852 419.638C664.808 419.556 664.722 419.268 664.722 418.815C664.722 418.445 664.808 418.156 664.894 418.074C665.109 418.033 665.28 417.992 665.495 417.992C666.009 417.909 666.438 417.827 666.867 417.745C667.597 417.539 667.854 417.168 667.897 416.263C668.025 414.205 668.154 408.318 667.854 406.836C667.339 404.448 665.924 403.255 663.65 403.255C662.321 403.255 660.647 403.872 659.275 404.86C659.061 405.025 658.889 405.436 658.889 405.807V408.236C658.889 411.199 658.889 414.904 658.932 416.51C658.975 417.003 659.146 417.58 660.133 417.786C660.348 417.827 660.691 417.909 661.12 417.951L661.891 418.074C661.978 418.321 661.935 419.309 661.763 419.638C661.334 419.638 660.819 419.597 660.218 419.597C659.318 419.556 658.16 419.515 656.873 419.515C655.372 419.515 654.3 419.556 653.442 419.597C652.841 419.515 652.369 419.515 651.855 419.515V419.515Z" fill="#442D22"/>
<path fill-rule="evenodd" clip-rule="evenodd" d="M629.293 429.395L627.534 428.818C627.534 428.818 627.749 420.215 624.532 419.597C622.388 417.209 624.876 318.331 632.596 419.268C632.596 419.268 629.937 420.543 629.465 422.726C628.95 424.866 629.293 429.395 629.293 429.395V429.395Z" fill="white"/>
<path fill-rule="evenodd" clip-rule="evenodd" d="M629.293 429.395L627.534 428.818C627.534 428.818 627.749 420.215 624.532 419.597C622.388 417.209 624.876 318.331 632.596 419.268C632.596 419.268 629.937 420.543 629.465 422.726C628.95 424.866 629.293 429.395 629.293 429.395V429.395Z" fill="#A6A385"/>
<path fill-rule="evenodd" clip-rule="evenodd" d="M630.237 421.079C630.237 421.079 645.636 411.364 642.032 391.151C638.558 376.456 630.366 371.64 629.465 369.787C628.478 368.47 627.534 366.165 627.534 366.165L628.178 407.041C628.178 407.083 626.848 419.556 630.237 421.08" fill="white"/>
<path fill-rule="evenodd" clip-rule="evenodd" d="M630.237 421.079C630.237 421.079 645.636 411.364 642.032 391.151C638.558 376.456 630.366 371.64 629.465 369.787C628.478 368.47 627.534 366.165 627.534 366.165L628.178 407.041C628.178 407.083 626.848 419.556 630.237 421.08" fill="#499D4A"/>
<path fill-rule="evenodd" clip-rule="evenodd" d="M626.634 421.614C626.634 421.614 612.179 412.146 613.037 395.474C613.852 378.803 624.06 370.611 626.033 369.129C627.32 367.812 627.363 367.317 627.449 366C628.35 367.853 628.178 393.704 628.306 396.75C628.692 408.482 627.62 419.392 626.634 421.614Z" fill="white"/>
<path fill-rule="evenodd" clip-rule="evenodd" d="M626.634 421.614C626.634 421.614 612.179 412.146 613.037 395.474C613.852 378.803 624.06 370.611 626.033 369.129C627.32 367.812 627.363 367.317 627.449 366C628.35 367.853 628.178 393.704 628.306 396.75C628.692 408.482 627.62 419.392 626.634 421.614Z" fill="#58AA50"/>
<path d="M173.645 88.5307H158.392V135.926H152.161V88.5307H137V82.9331H173.645V88.5307ZM202.385 98.0474L184.992 141.99C181.923 149.827 177.552 153.745 171.971 153.745C170.39 153.745 169.088 153.559 168.065 153.279V147.868C169.367 148.334 170.576 148.521 171.599 148.521C174.668 148.521 176.901 146.655 178.482 143.016L181.458 135.832L166.763 98.0468H173.459L183.69 127.156C183.783 127.529 184.062 128.462 184.434 130.049H184.62C184.713 129.489 184.992 128.556 185.364 127.249L196.06 98.0479L202.385 98.0474ZM212.244 130.421H212.058V153.279H206.012V98.0474H212.058V104.671H212.244C215.22 99.6331 219.592 97.1142 225.265 97.1142C230.102 97.1142 233.915 98.7933 236.612 102.152C239.309 105.511 240.704 110.082 240.704 115.774C240.704 122.118 239.124 127.156 236.054 130.981C232.985 134.806 228.799 136.672 223.498 136.672C218.755 136.859 214.941 134.713 212.244 130.421ZM212.151 115.214V120.532C212.151 123.704 213.174 126.316 215.22 128.462C217.267 130.607 219.778 131.728 222.94 131.728C226.567 131.728 229.45 130.328 231.59 127.529C233.636 124.73 234.659 120.811 234.659 115.774C234.659 111.575 233.729 108.217 231.776 105.884C229.822 103.458 227.218 102.339 223.87 102.339C220.336 102.339 217.546 103.552 215.406 105.977C213.174 108.403 212.151 111.482 212.151 115.214ZM277.722 118.479H251.121C251.214 122.678 252.331 125.943 254.47 128.275C256.609 130.608 259.585 131.727 263.399 131.727C267.677 131.727 271.583 130.328 275.117 127.529V133.22C271.77 135.646 267.398 136.859 262.003 136.859C256.702 136.859 252.517 135.179 249.448 131.727C246.378 128.275 244.89 123.424 244.89 117.266C244.89 111.389 246.564 106.537 249.913 102.898C253.26 99.1665 257.353 97.3009 262.282 97.3009C267.212 97.3009 271.026 98.8866 273.723 102.152C276.42 105.325 277.815 109.802 277.815 115.494L277.722 118.479ZM271.49 113.348C271.49 109.802 270.653 107.097 268.979 105.138C267.305 103.178 264.98 102.245 262.096 102.245C259.213 102.245 256.795 103.272 254.842 105.325C252.889 107.377 251.587 110.082 251.121 113.348L271.49 113.348ZM280.698 134.06V129.861C284.511 132.287 288.325 133.5 292.231 133.5C296.324 133.5 299.486 132.66 301.626 130.887C303.764 129.115 304.787 126.783 304.787 123.704C304.787 120.998 304.043 118.852 302.648 117.173C301.253 115.587 298.091 113.348 293.347 110.549C287.953 107.377 284.605 104.765 283.209 102.712C281.814 100.566 281.07 98.1407 281.07 95.4346C281.07 91.7027 282.558 88.5307 285.442 85.9185C288.324 83.3064 292.231 82 297.067 82C300.23 82 303.393 82.5599 306.462 83.5863V87.4109C303.393 86.0113 300.044 85.2653 296.51 85.2653C292.883 85.2653 290.092 86.1985 287.953 87.9708C285.813 89.8371 284.791 92.076 284.791 94.8748C284.791 97.5808 285.535 99.7264 286.93 101.313C288.325 102.898 291.487 105.137 296.231 107.843C301.16 110.642 304.415 113.161 306.09 115.307C307.763 117.453 308.508 119.972 308.508 122.864C308.508 126.969 307.112 130.235 304.322 132.846C301.532 135.459 297.533 136.672 292.417 136.672C290.557 136.672 288.511 136.392 286.092 135.832C283.675 135.273 281.908 134.806 280.698 134.06ZM339.944 134.246C337.154 135.926 333.806 136.859 329.9 136.859C324.784 136.859 320.599 135.086 317.437 131.541C314.275 127.995 312.693 123.424 312.693 117.639C312.693 111.669 314.461 106.724 317.995 102.898C321.529 99.0738 326.086 97.1142 331.667 97.1142C334.55 97.1142 337.34 97.6741 340.037 98.8866V102.712C337.34 101.033 334.364 100.193 331.202 100.193C326.737 100.193 323.203 101.779 320.412 104.951C317.623 108.123 316.32 112.322 316.32 117.359C316.32 122.304 317.623 126.223 320.133 129.208C322.645 132.194 325.993 133.687 330.086 133.687C333.899 133.687 337.154 132.66 339.945 130.701L339.944 134.246ZM362.453 101.593C361.336 100.753 360.035 100.38 358.453 100.38C355.477 100.38 352.966 101.965 351.012 105.045C348.967 108.123 348.036 112.508 348.036 118.199V136.019H344.689V98.0474H348.036V106.444H348.222C349.06 103.552 350.454 101.313 352.315 99.7264C354.175 98.1407 356.314 97.3009 358.825 97.3009C360.221 97.3009 361.522 97.4875 362.546 97.954V101.593H362.453ZM367.847 88.5307C367.103 88.5307 366.452 88.2508 365.894 87.6909C365.336 87.1316 365.057 86.4784 365.057 85.6386C365.057 84.7988 365.336 84.1456 365.894 83.6796C366.452 83.2131 367.103 82.9331 367.847 82.9331C368.591 82.9331 369.243 83.2131 369.893 83.6796C370.452 84.1462 370.731 84.7988 370.731 85.6386C370.732 86.0191 370.659 86.3962 370.516 86.7483C370.372 87.1005 370.161 87.4208 369.893 87.6909C369.242 88.2508 368.591 88.5307 367.847 88.5307ZM366.173 135.926V98.0474H369.521V135.925L366.173 135.926ZM381.147 129.208H380.961V153.372H377.613V98.0474H380.961V105.884H381.147C382.543 103.085 384.403 100.939 386.914 99.4465C389.425 97.954 392.216 97.2076 395.192 97.2076C400.028 97.2076 403.749 98.8866 406.446 102.152C409.143 105.511 410.445 109.989 410.445 115.68C410.445 122.025 408.864 127.156 405.795 131.074C402.725 134.993 398.633 136.952 393.61 136.952C388.03 136.859 383.845 134.339 381.147 129.208ZM380.961 115.121V119.878C380.961 123.704 382.171 126.969 384.496 129.675C386.914 132.38 389.983 133.78 393.89 133.78C397.703 133.78 400.865 132.1 403.284 128.835C405.702 125.476 406.911 121.185 406.911 115.774C406.911 111.015 405.795 107.284 403.563 104.484C401.33 101.686 398.447 100.286 394.727 100.286C390.355 100.286 386.914 101.779 384.496 104.765C382.078 107.75 380.961 111.109 380.961 115.121ZM431 135.366C429.233 136.206 427.559 136.579 426.07 136.579C420.49 136.579 417.7 133.22 417.7 126.503V101.219H410.91V98.1407H417.7V88.2508L419.374 87.6909L421.048 87.1316V98.1407H431V101.219H421.048V126.223C421.048 128.835 421.42 130.701 422.257 131.914C423.094 133.127 424.49 133.687 426.443 133.687C427.838 133.687 429.326 133.22 431 132.287V135.366Z" fill="black"/>
<path d="M1021 229.311C1021 229.311 980.294 198.072 977.204 209.523C974.115 220.974 1007.07 247 1007.07 247L1021 229.311Z" fill="#FFB9B9"/>
<path opacity="0.1" d="M1021 229.311C1021 229.311 980.294 198.072 977.204 209.523C974.115 220.974 1007.07 247 1007.07 247L1021 229.311Z" fill="black"/>
<path d="M1156.41 130C1156.41 130 1107.86 217.218 1106.83 229.677C1105.79 242.137 1105.79 243.175 1101.66 242.137C1097.53 241.099 1040.72 234.869 1035.56 236.945C1030.39 239.022 1020.06 224.486 1020.06 224.486C1020.06 224.486 1000.44 244.214 1004.57 248.367C1008.7 252.52 1021.1 254.597 1023.16 259.788C1025.23 264.98 1028.33 270.171 1037.62 269.133C1046.92 268.095 1109.93 285.746 1118.19 282.631C1126.45 279.516 1128.52 274.324 1132.65 274.324C1136.78 274.324 1145.04 270.171 1145.04 269.133C1145.04 268.095 1173.97 213.064 1173.97 213.064C1173.97 213.064 1208.05 138.306 1156.41 130Z" fill="#D0CDE1"/>
<path opacity="0.1" d="M1156.41 130C1156.41 130 1107.86 217.218 1106.83 229.677C1105.79 242.137 1105.79 243.175 1101.66 242.137C1097.53 241.099 1040.72 234.869 1035.56 236.945C1030.39 239.022 1020.06 224.486 1020.06 224.486C1020.06 224.486 1000.44 244.214 1004.57 248.367C1008.7 252.52 1021.1 254.597 1023.16 259.788C1025.23 264.98 1028.33 270.171 1037.62 269.133C1046.92 268.095 1109.93 285.746 1118.19 282.631C1126.45 279.516 1128.52 274.324 1132.65 274.324C1136.78 274.324 1145.04 270.171 1145.04 269.133C1145.04 268.095 1173.97 213.064 1173.97 213.064C1173.97 213.064 1208.05 138.306 1156.41 130Z" fill="black"/>
<path d="M1086.11 72.8677C1085.67 78.3825 1085.76 83.927 1086.37 89.4248C1087.94 101.356 1093.4 113.792 1088.24 124.929C1086.37 128.972 1083.2 132.494 1081.47 136.585C1077.81 145.245 1081.13 154.851 1080.63 164.068C1079.99 175.975 1072.46 187.448 1061 193.973C1080.57 194.584 1099.19 184.853 1111.51 171.593C1123.82 158.333 1130.68 141.886 1135.82 125.431C1138.47 117.703 1140.16 109.679 1140.87 101.539C1141.28 96.862 1140.73 92.1504 1139.27 87.6933C1137.46 83.339 1135.07 79.2484 1132.18 75.5311C1129.1 71.1713 1125.93 66.7258 1121.38 63.482C1115.78 59.4866 1104.97 55.475 1097.53 56.0564C1088.41 56.7696 1086.49 66.5038 1086.11 72.8677Z" fill="#2F2E41"/>
<path d="M1116 105.214C1116 105.214 1127.39 145.608 1118.07 157.001C1108.75 168.394 1174 151.822 1174 151.822C1174 151.822 1141.89 119.715 1157.43 99L1116 105.214Z" fill="#FFB9B9"/>
<path opacity="0.1" d="M1116 105.214C1116 105.214 1127.39 145.608 1118.07 157.001C1108.75 168.394 1174 151.822 1174 151.822C1174 151.822 1141.89 119.715 1157.43 99L1116 105.214Z" fill="black"/>
<path d="M1079 644.042V674.251L1094.54 693L1108 686.75L1103.86 643L1079 644.042Z" fill="#FFB9B9"/>
<path d="M1084.88 672.867C1084.88 672.867 1080.74 658.377 1073.5 668.727C1066.25 679.077 1059.01 701.846 1054.87 702.881C1050.73 703.916 1021.75 736 1050.73 736C1079.71 736 1089.02 722.545 1089.02 722.545C1089.02 722.545 1118 711.161 1118 709.091C1118 707.021 1113.86 668.727 1111.79 668.727C1109.72 668.727 1108.69 675.972 1103.51 675.972C1098.34 675.972 1084.88 672.867 1084.88 672.867Z" fill="#2F2E41"/>
<path d="M1148.04 650.051L1147 677.745L1172 688V648L1148.04 650.051Z" fill="#FFB9B9"/>
<path d="M1174.78 677.799C1174.78 677.799 1161.29 663.336 1154.03 666.435C1150.44 667.875 1146.97 669.603 1143.66 671.601C1143.66 671.601 1139.51 685.03 1137.44 696.394C1135.36 707.757 1134.33 712.923 1132.25 717.055C1130.18 721.187 1128.1 736.683 1148.85 738.749C1169.59 740.815 1175.81 729.451 1175.81 729.451L1181 702.592C1181 702.592 1178.93 677.799 1174.78 677.799Z" fill="#2F2E41"/>
<path d="M1092.22 351.094C1092.22 351.094 1062 418.547 1066.17 479.773C1066.17 479.773 1055.74 503.641 1062 540.999C1068.25 578.357 1076.59 653.074 1076.59 653.074C1076.59 653.074 1104.73 656.187 1106.82 650.998C1106.82 650.998 1108.9 599.112 1110.99 597.036C1113.07 594.961 1109.94 547.225 1106.82 537.886C1103.69 528.546 1136 436.188 1136 436.188L1127.66 321L1092.22 351.094Z" fill="#2F2E41"/>
<path opacity="0.1" d="M1092.22 351.094C1092.22 351.094 1062 418.547 1066.17 479.773C1066.17 479.773 1055.74 503.641 1062 540.999C1068.25 578.357 1076.59 653.074 1076.59 653.074C1076.59 653.074 1104.73 656.187 1106.82 650.998C1106.82 650.998 1108.9 599.112 1110.99 597.036C1113.07 594.961 1109.94 547.225 1106.82 537.886C1103.69 528.546 1136 436.188 1136 436.188L1127.66 321L1092.22 351.094Z" fill="black"/>
<path d="M1084 347.171L1103.63 389.625C1103.63 389.625 1112.92 485.925 1118.09 498.35C1118.09 498.35 1120.16 533.557 1129.45 544.947C1138.75 556.337 1145.98 656.779 1145.98 656.779C1145.98 656.779 1171.81 664.027 1173.87 656.779C1175.94 649.53 1182.14 599.827 1182.14 599.827C1182.14 599.827 1184.2 557.373 1172.84 529.415C1161.48 501.457 1186.27 401.016 1186.27 401.016C1186.27 401.016 1212.1 352.348 1174.91 313L1084 347.171Z" fill="#2F2E41"/>
<path d="M1138.5 118C1161.97 118 1181 98.9721 1181 75.5C1181 52.0279 1161.97 33 1138.5 33C1115.03 33 1096 52.0279 1096 75.5C1096 98.9721 1115.03 118 1138.5 118Z" fill="#FFB9B9"/>
<path d="M1178.41 140C1178.41 140 1133.63 140 1127.38 145.183C1125.84 146.646 1123.79 147.462 1121.66 147.462C1119.52 147.462 1117.47 146.646 1115.93 145.183C1115.93 145.183 1100.31 146.22 1096.14 158.659C1091.98 171.098 1079.48 187.684 1079.48 187.684C1079.48 187.684 1060.74 201.16 1071.15 236.404C1081.56 271.649 1073.23 328.662 1073.23 328.662C1073.23 328.662 1064.9 341.102 1073.23 346.285C1081.56 351.468 1084.69 353.541 1083.65 357.687C1082.6 361.834 1178.41 323.479 1178.41 316.223C1178.41 308.967 1176.33 302.747 1178.41 299.637C1180.49 296.528 1182.58 291.345 1180.49 286.162C1178.41 280.979 1182.58 279.942 1181.53 274.759C1180.49 269.576 1186.74 231.221 1190.91 214.636C1195.07 198.05 1194.03 141.037 1178.41 140Z" fill="#D0CDE1"/>
<path d="M1021 241.311C1021 241.311 980.294 210.072 977.204 221.523C974.115 232.974 1007.07 259 1007.07 259L1021 241.311Z" fill="#FFB9B9"/>
<path d="M1156.41 145C1156.41 145 1107.86 232.218 1106.83 244.677C1105.79 257.137 1105.79 258.175 1101.66 257.137C1097.53 256.099 1040.72 249.869 1035.56 251.945C1030.39 254.022 1020.06 239.486 1020.06 239.486C1020.06 239.486 1000.44 259.214 1004.57 263.367C1008.7 267.52 1021.1 269.597 1023.16 274.788C1025.23 279.98 1028.33 285.171 1037.62 284.133C1046.92 283.095 1109.93 300.746 1118.19 297.631C1126.45 294.516 1128.52 289.324 1132.65 289.324C1136.78 289.324 1145.04 285.171 1145.04 284.133C1145.04 283.095 1173.97 228.064 1173.97 228.064C1173.97 228.064 1208.05 153.306 1156.41 145Z" fill="#D0CDE1"/>
<path d="M1118.15 102.703C1117.57 98.4952 1115.42 94.6781 1114.32 90.5759C1113.45 87.2927 1113.26 83.8685 1113.75 80.5092C1114.25 77.1499 1115.41 73.9249 1117.17 71.0283C1123.25 61.1861 1135.17 56.827 1143.49 48.803C1143.66 52.8902 1146.49 56.3831 1149.61 59.0116C1152.74 61.6402 1156.32 63.7724 1158.97 66.8853C1161.51 70.1697 1163.36 73.9358 1164.41 77.9571C1166.04 82.6167 1166.77 87.5449 1166.57 92.4785C1166.45 94.9438 1165.83 97.3591 1164.75 99.5776C1163.67 101.796 1162.16 103.772 1160.29 105.384C1157.2 107.84 1152.87 109.243 1151.37 112.908C1150.78 114.74 1150.61 116.681 1150.87 118.588C1151.58 129.988 1152.25 141.591 1149.57 152.693C1146.89 163.796 1140.34 174.522 1130.06 179.444C1138.51 180.045 1147.13 180.631 1155.32 178.492C1163.51 176.354 1171.35 170.97 1174.17 162.965C1175.56 159.016 1175.69 154.623 1177.67 150.935C1182.68 141.599 1196.52 141.174 1203.32 133.054C1206.04 129.805 1207.35 125.617 1208.33 121.489C1214.07 97.1935 1210.03 71.396 1201.3 48.0169C1198.29 39.9588 1194.54 31.8452 1188.08 26.1816C1182.58 21.3622 1175.57 18.7068 1168.62 16.4391C1158.5 13.1295 1148.06 10.418 1137.42 10.0684C1132.79 9.7959 1128.15 10.339 1123.71 11.6731C1119.33 13.2611 1115.26 15.5914 1111.66 18.5625C1094.98 31.5822 1083.63 52.3908 1085.13 73.5381C1086.05 86.334 1091.45 98.4437 1098.39 109.217C1100.82 112.985 1106.56 121.019 1111.89 118.65C1116.72 116.501 1118.79 107.247 1118.15 102.703Z" fill="#2F2E41"/>
<path d="M1296 746.173C1296 770.315 1005.88 854 648 854C290.119 854 0 770.315 0 746.173C0 722.03 290.119 766.573 648 766.573C1005.88 766.573 1296 722.03 1296 746.173Z" fill="#3F3D56"/>
<path opacity="0.2" d="M745.725 767.117C731.349 767.233 712.321 764.878 708.491 762.544C705.574 760.768 704.411 754.392 704.022 751.45C703.753 751.462 703.597 751.467 703.597 751.467C703.597 751.467 704.404 761.737 708.234 764.07C712.064 766.403 731.092 768.759 745.469 768.643C749.619 768.609 751.052 767.133 750.973 764.946C750.397 766.267 748.814 767.092 745.725 767.117Z" fill="black"/>
<defs>
<linearGradient id="paint0_linear" x1="370.973" y1="506.295" x2="370.973" y2="235.617" gradientUnits="userSpaceOnUse">
<stop stop-color="#808080" stop-opacity="0.25"/>
<stop offset="0.53514" stop-color="#808080" stop-opacity="0.12"/>
<stop offset="1" stop-color="#808080" stop-opacity="0.1"/>
</linearGradient>
<linearGradient id="paint1_linear" x1="71655.2" y1="26617.6" x2="71655.2" y2="36" gradientUnits="userSpaceOnUse">
<stop stop-color="#808080" stop-opacity="0.25"/>
<stop offset="0.53514" stop-color="#808080" stop-opacity="0.12"/>
<stop offset="1" stop-color="#808080" stop-opacity="0.1"/>
</linearGradient>
<linearGradient id="paint2_linear" x1="121508" y1="46274.4" x2="121508" y2="224.766" gradientUnits="userSpaceOnUse">
<stop stop-color="#808080" stop-opacity="0.25"/>
<stop offset="0.53514" stop-color="#808080" stop-opacity="0.12"/>
<stop offset="1" stop-color="#808080" stop-opacity="0.1"/>
</linearGradient>
<linearGradient id="paint3_linear" x1="182373" y1="101213" x2="182373" y2="55163.8" gradientUnits="userSpaceOnUse">
<stop stop-color="#808080" stop-opacity="0.25"/>
<stop offset="0.53514" stop-color="#808080" stop-opacity="0.12"/>
<stop offset="1" stop-color="#808080" stop-opacity="0.1"/>
</linearGradient>
<linearGradient id="paint4_linear" x1="-14397.7" y1="102704" x2="-14397.7" y2="85580" gradientUnits="userSpaceOnUse">
<stop stop-color="#808080" stop-opacity="0.25"/>
<stop offset="0.53514" stop-color="#808080" stop-opacity="0.12"/>
<stop offset="1" stop-color="#808080" stop-opacity="0.1"/>
</linearGradient>
<linearGradient id="paint5_linear" x1="-15517.8" y1="102704" x2="-15517.8" y2="85580" gradientUnits="userSpaceOnUse">
<stop stop-color="#808080" stop-opacity="0.25"/>
<stop offset="0.53514" stop-color="#808080" stop-opacity="0.12"/>
<stop offset="1" stop-color="#808080" stop-opacity="0.1"/>
</linearGradient>
<linearGradient id="paint6_linear" x1="8069.99" y1="91797.9" x2="8069.99" y2="74673.9" gradientUnits="userSpaceOnUse">
<stop stop-color="#808080" stop-opacity="0.25"/>
<stop offset="0.53514" stop-color="#808080" stop-opacity="0.12"/>
<stop offset="1" stop-color="#808080" stop-opacity="0.1"/>
</linearGradient>
<linearGradient id="paint7_linear" x1="9259.91" y1="91797.9" x2="9259.91" y2="74673.9" gradientUnits="userSpaceOnUse">
<stop stop-color="#808080" stop-opacity="0.25"/>
<stop offset="0.53514" stop-color="#808080" stop-opacity="0.12"/>
<stop offset="1" stop-color="#808080" stop-opacity="0.1"/>
</linearGradient>
<linearGradient id="paint8_linear" x1="21352.8" y1="94632.2" x2="21352.8" y2="76424.4" gradientUnits="userSpaceOnUse">
<stop stop-color="#808080" stop-opacity="0.25"/>
<stop offset="0.53514" stop-color="#808080" stop-opacity="0.12"/>
<stop offset="1" stop-color="#808080" stop-opacity="0.1"/>
</linearGradient>
<linearGradient id="paint9_linear" x1="356.848" y1="348.542" x2="335.052" y2="381.522" gradientUnits="userSpaceOnUse">
<stop stop-color="#41873F"/>
<stop offset="0.3288" stop-color="#418B3D"/>
<stop offset="0.6352" stop-color="#419637"/>
<stop offset="0.9319" stop-color="#3FA92D"/>
<stop offset="1" stop-color="#3FAE2A"/>
</linearGradient>
<linearGradient id="paint10_linear" x1="346.303" y1="367.444" x2="398.938" y2="339.905" gradientUnits="userSpaceOnUse">
<stop offset="0.1376" stop-color="#41873F"/>
<stop offset="0.4032" stop-color="#54A044"/>
<stop offset="0.7136" stop-color="#66B848"/>
<stop offset="0.9081" stop-color="#6CC04A"/>
</linearGradient>
<linearGradient id="paint11_linear" x1="327.358" y1="364.791" x2="370.992" y2="364.791" gradientUnits="userSpaceOnUse">
<stop offset="0.09192" stop-color="#6CC04A"/>
<stop offset="0.2864" stop-color="#66B848"/>
<stop offset="0.5968" stop-color="#54A044"/>
<stop offset="0.8624" stop-color="#41873F"/>
</linearGradient>
<linearGradient id="paint12_linear" x1="327.358" y1="383.573" x2="370.992" y2="383.573" gradientUnits="userSpaceOnUse">
<stop offset="0.09192" stop-color="#6CC04A"/>
<stop offset="0.2864" stop-color="#66B848"/>
<stop offset="0.5968" stop-color="#54A044"/>
<stop offset="0.8624" stop-color="#41873F"/>
</linearGradient>
<linearGradient id="paint13_linear" x1="377.349" y1="347.471" x2="365.461" y2="407.455" gradientUnits="userSpaceOnUse">
<stop stop-color="#41873F"/>
<stop offset="0.3288" stop-color="#418B3D"/>
<stop offset="0.6352" stop-color="#419637"/>
<stop offset="0.9319" stop-color="#3FA92D"/>
<stop offset="1" stop-color="#3FAE2A"/>
</linearGradient>
</defs>
</svg>
